<svg xmlns="http://www.w3.org/2000/svg" xmlns:xlink="http://www.w3.org/1999/xlink" width="51.98507455250909" height="34" version="1.1" style=""><rect id="backgroundrect" width="100%" height="100%" x="0" y="0" fill="none" stroke="none" class="selected" style=""/>
    <!-- Generator: Sketch 45.1 (43504) - http://www.bohemiancoding.com/sketch -->
    <defs/>
        <g id="Footer" fill="#FFFFFF">
            <g id="CodeCamp_logo_horizontal_lockup_black">
                <path d="M43.43689739999999,17.7495799 L33.640870500000005,27.544477099999995 C32.4611299,28.724970799999994 30.54070949999999,28.724970799999994 29.360968900000003,27.544477099999995 L24.4846072,22.668868599999996 C24.477829299999996,22.661714000000003 24.471427899999995,22.653429899999992 24.464649899999998,22.646275400000007 C24.457118899999998,22.6387443 24.449211200000008,22.632719500000007 24.441680200000008,22.625564999999995 L16.504318999999995,14.688580299999998 C15.995595899999998,14.1798572 15.171321300000002,14.1798572 14.662598200000005,14.688580299999998 C14.154251599999995,15.196926899999994 14.154251599999995,16.021578000000005 14.662598200000005,16.5299246 L21.7003742,23.568077200000005 L17.7235977,27.544477099999995 C16.5442336,28.724594300000007 14.6238132,28.724970799999994 13.443319500000001,27.544477099999995 L3.648422240000002,17.7495799 C2.4683050700000138,16.569462700000003 2.4683050700000138,14.649042300000005 3.648422240000002,13.469301599999994 L13.443319500000001,3.6740278500000016 C14.011914500000003,3.105432780000001 14.771798500000003,2.7925172199999935 15.583646900000005,2.7925172199999935 C16.3954952,2.7925172199999935 17.1557557,3.105432780000001 17.7235977,3.6740278500000016 L30.579870999999997,16.5299246 C31.088594099999995,17.0386477 31.9132453,17.039024299999994 32.4219684,16.5299246 C32.93031500000001,16.021578000000005 32.93031500000001,15.196926899999994 32.4219684,14.688580299999998 L25.384192400000003,7.650427769999993 L29.360968900000003,3.6740278500000016 C29.928810800000008,3.105432780000001 30.689071400000003,2.7925172199999935 31.500919699999997,2.7925172199999935 C32.312768000000005,2.7925172199999935 33.072652000000005,3.105432780000001 33.6412471,3.6740278500000016 L43.436520900000005,13.469301599999994 C44.61626150000001,14.649042300000005 44.61626150000001,16.569462700000003 43.43689739999999,17.7495799 zM45.278241699999995,11.627204300000002 L35.48259139999999,1.8319304599999953 C34.4225946,0.771933697999998 33.00863799999999,0.18789995900000633 31.500919699999997,0.18789995900000633 C29.993201400000004,0.18789995900000633 28.578868200000002,0.771933697999998 27.518871500000003,1.8319304599999953 L23.5424716,5.809083490000006 L19.5656951,1.8319304599999953 C18.505698300000006,0.771933697999998 17.0913652,0.18789995900000633 15.583646900000005,0.18789995900000633 C14.075928599999997,0.18789995900000633 12.661972000000006,0.771933697999998 11.601975199999998,1.8319304599999953 L1.80632485000001,11.627204300000002 C-0.3893558260000134,13.823261500000001 -0.3893558260000134,17.395620000000008 1.80632485000001,19.591300700000005 L11.601975199999998,29.386574499999995 C12.699627300000003,30.484226500000005 14.141448800000006,31.033240899999996 15.583646900000005,31.033240899999996 C17.025844899999996,31.033240899999996 18.467666500000007,30.484226500000005 19.5656951,29.386574499999995 L23.5424716,25.409797999999995 L27.518871500000003,29.386574499999995 C28.578868200000002,30.446571199999994 29.993201400000004,31.03060500000001 31.500919699999997,31.03060500000001 C33.00863799999999,31.03060500000001 34.4225946,30.446571199999994 35.48259139999999,29.386574499999995 L45.278241699999995,19.591300700000005 C47.47392239999999,17.395620000000008 47.47392239999999,13.823261500000001 45.278241699999995,11.627204300000002 L45.278241699999995,11.627204300000002 z" id="svg_1"/>
            </g>
    </g></svg>