<svg class="w3"  width="73" height="73" xmlns="http://www.w3.org/2000/svg">
    <g>
        <path fill="#ffffff" d="m19.6,73l0,-22.3l-19.6,20.1l0,2.2" class="st0"/>
        <path fill="#ffffff" d="m68.3,0.5l-24.5,0c-8,8.6 -35.7,37.2 -43.8,45.6l0,24.7l68.3,-70.3z" class="st1"/>
        <path fill="#ffffff" d="m0,46.1l68.3,-45.6l-24.5,0" class="st2"/>
        <path fill="#ffffff"  d="m24.7,45.4l20.2,27.6l23.7,0l-30.6,-41.4" class="st3"/>
        <path fill="#ffffff" d="m45,73l-7,-41.4l-13.3,13.8" class="st4"/>
        <path fill="#ffffff" d="m0,0.5l19.6,0l0,19.6l-19.6,0l0,-19.6z" class="st35"/>
        <path fill="#ffffff" d="m0,14l19.6,-13.5l-19.6,0l0,13.5z" class="st36"/>
        <path fill="#ffffff" d="m11,6.4l8.6,13.7l0,-19.6l-8.6,5.9z" class="st37"/>
    </g>
</svg>