<svg xmlns="http://www.w3.org/2000/svg" version="1.0" width="332.5820924521395" height="374.04477634247223" preserveAspectRatio="xMidYMid meet" style=""><rect id="backgroundrect" width="100%" height="100%" x="0" y="0" fill="none" stroke="none"/>
<metadata>
Created by potrace 1.15, written by Peter Selinger 2001-2017
</metadata>

<g class="currentLayer" style=""><title>Layer 1</title><g transform="translate(0,512) scale(0.10000000149011612,-0.10000000149011612) " fill="#fff" stroke="none" id="svg_1" class="">
<path d="M1365.0149536132812,4682.865665435791 c-159,-228 -288,-418 -288,-424 c0,-5 103,-242 229,-528 c126,-285 228,-519 227,-520 c-13,-11 -886,-494 -892,-494 c-5,0 -45,289 -88,643 c-44,353 -81,644 -83,646 c-1,2 -5,2 -8,-1 c-7,-6 -405,-1533 -404,-1549 c0,-8 360,-229 799,-492 l799,-477 l796,352 c504,223 795,357 795,366 c0,28 -485,1561 -491,1554 c-4,-4 -101,-236 -215,-516 c-154,-376 -210,-503 -216,-490 c-7,15 -600,2125 -647,2302 c-7,23 -15,42 -19,42 c-4,0 -136,-187 -294,-414 z" id="svg_2"/>

</g></g></svg>